<mxfile host="app.diagrams.net" modified="2021-05-10T11:42:41.965Z" agent="5.0 (Windows NT 10.0; Win64; x64) AppleWebKit/537.36 (KHTML, like Gecko) Chrome/90.0.4430.93 Safari/537.36" etag="1RMNnFLOTMMVLiYcUxTy" version="14.6.11" type="github">
  <diagram name="Page-1" id="e7e014a7-5840-1c2e-5031-d8a46d1fe8dd">
    <mxGraphModel dx="1303" dy="792" grid="1" gridSize="10" guides="1" tooltips="1" connect="1" arrows="1" fold="1" page="1" pageScale="1" pageWidth="1169" pageHeight="826" background="#ffffff" math="0" shadow="0">
      <root>
        <mxCell id="0" />
        <mxCell id="1" parent="0" />
        <mxCell id="B1bo0eIq5hZwTZeY6I_s-41" value="" style="ellipse;html=1;shape=startState;fillColor=#000000;strokeColor=#ff0000;" vertex="1" parent="1">
          <mxGeometry x="330" y="270" width="30" height="30" as="geometry" />
        </mxCell>
        <mxCell id="B1bo0eIq5hZwTZeY6I_s-42" value="" style="edgeStyle=orthogonalEdgeStyle;html=1;verticalAlign=bottom;endArrow=open;endSize=8;strokeColor=#ff0000;" edge="1" source="B1bo0eIq5hZwTZeY6I_s-41" parent="1">
          <mxGeometry relative="1" as="geometry">
            <mxPoint x="345" y="360" as="targetPoint" />
          </mxGeometry>
        </mxCell>
        <mxCell id="B1bo0eIq5hZwTZeY6I_s-47" value="User request authentication" style="text;html=1;strokeColor=none;fillColor=none;align=center;verticalAlign=middle;whiteSpace=wrap;rounded=0;" vertex="1" parent="1">
          <mxGeometry x="360" y="310" width="60" height="30" as="geometry" />
        </mxCell>
        <mxCell id="B1bo0eIq5hZwTZeY6I_s-48" value="authentication in progress" style="rounded=1;whiteSpace=wrap;html=1;" vertex="1" parent="1">
          <mxGeometry x="285" y="360" width="120" height="60" as="geometry" />
        </mxCell>
        <mxCell id="B1bo0eIq5hZwTZeY6I_s-49" value="" style="endArrow=classic;html=1;exitX=0.342;exitY=1.011;exitDx=0;exitDy=0;exitPerimeter=0;" edge="1" parent="1" source="B1bo0eIq5hZwTZeY6I_s-48">
          <mxGeometry width="50" height="50" relative="1" as="geometry">
            <mxPoint x="330" y="430" as="sourcePoint" />
            <mxPoint x="140" y="520" as="targetPoint" />
          </mxGeometry>
        </mxCell>
        <mxCell id="B1bo0eIq5hZwTZeY6I_s-74" style="edgeStyle=orthogonalEdgeStyle;rounded=0;orthogonalLoop=1;jettySize=auto;html=1;exitX=0.5;exitY=1;exitDx=0;exitDy=0;entryX=0;entryY=0.5;entryDx=0;entryDy=0;" edge="1" parent="1" source="B1bo0eIq5hZwTZeY6I_s-50" target="B1bo0eIq5hZwTZeY6I_s-60">
          <mxGeometry relative="1" as="geometry" />
        </mxCell>
        <mxCell id="B1bo0eIq5hZwTZeY6I_s-50" value="display error message and redirect to login page" style="rounded=1;whiteSpace=wrap;html=1;" vertex="1" parent="1">
          <mxGeometry x="80" y="520" width="120" height="60" as="geometry" />
        </mxCell>
        <mxCell id="B1bo0eIq5hZwTZeY6I_s-51" value="authentication failed" style="text;html=1;strokeColor=none;fillColor=none;align=center;verticalAlign=middle;whiteSpace=wrap;rounded=0;" vertex="1" parent="1">
          <mxGeometry x="110" y="440" width="100" height="20" as="geometry" />
        </mxCell>
        <mxCell id="B1bo0eIq5hZwTZeY6I_s-52" value="" style="endArrow=classic;html=1;exitX=0.5;exitY=1;exitDx=0;exitDy=0;" edge="1" parent="1" source="B1bo0eIq5hZwTZeY6I_s-48" target="B1bo0eIq5hZwTZeY6I_s-53">
          <mxGeometry width="50" height="50" relative="1" as="geometry">
            <mxPoint x="336.03999999999996" y="430.65999999999997" as="sourcePoint" />
            <mxPoint x="520" y="520" as="targetPoint" />
          </mxGeometry>
        </mxCell>
        <mxCell id="B1bo0eIq5hZwTZeY6I_s-53" value="redirect to home page" style="rounded=1;whiteSpace=wrap;html=1;" vertex="1" parent="1">
          <mxGeometry x="470" y="520" width="120" height="60" as="geometry" />
        </mxCell>
        <mxCell id="B1bo0eIq5hZwTZeY6I_s-54" value="authentication passed" style="text;html=1;strokeColor=none;fillColor=none;align=center;verticalAlign=middle;whiteSpace=wrap;rounded=0;" vertex="1" parent="1">
          <mxGeometry x="490" y="440" width="40" height="20" as="geometry" />
        </mxCell>
        <mxCell id="B1bo0eIq5hZwTZeY6I_s-55" value="" style="endArrow=classic;html=1;exitX=0;exitY=1;exitDx=0;exitDy=0;" edge="1" parent="1" source="B1bo0eIq5hZwTZeY6I_s-53">
          <mxGeometry width="50" height="50" relative="1" as="geometry">
            <mxPoint x="220" y="690" as="sourcePoint" />
            <mxPoint x="290" y="670" as="targetPoint" />
          </mxGeometry>
        </mxCell>
        <mxCell id="B1bo0eIq5hZwTZeY6I_s-56" value="" style="endArrow=classic;html=1;exitX=1;exitY=1;exitDx=0;exitDy=0;entryX=0.5;entryY=0;entryDx=0;entryDy=0;" edge="1" parent="1" source="B1bo0eIq5hZwTZeY6I_s-53" target="B1bo0eIq5hZwTZeY6I_s-62">
          <mxGeometry width="50" height="50" relative="1" as="geometry">
            <mxPoint x="610" y="603" as="sourcePoint" />
            <mxPoint x="640" y="660" as="targetPoint" />
          </mxGeometry>
        </mxCell>
        <mxCell id="B1bo0eIq5hZwTZeY6I_s-60" value="" style="ellipse;html=1;shape=endState;fillColor=#000000;strokeColor=#ff0000;" vertex="1" parent="1">
          <mxGeometry x="515" y="1000" width="30" height="30" as="geometry" />
        </mxCell>
        <mxCell id="B1bo0eIq5hZwTZeY6I_s-61" value="view profile, and feed of questions from a specific module under a specific course" style="rounded=1;whiteSpace=wrap;html=1;" vertex="1" parent="1">
          <mxGeometry x="210" y="680" width="120" height="60" as="geometry" />
        </mxCell>
        <mxCell id="B1bo0eIq5hZwTZeY6I_s-62" value="view questions and answers from favourites, and history of questions asked" style="rounded=1;whiteSpace=wrap;html=1;arcSize=34;" vertex="1" parent="1">
          <mxGeometry x="660" y="680" width="151" height="60" as="geometry" />
        </mxCell>
        <mxCell id="B1bo0eIq5hZwTZeY6I_s-63" value="scroll" style="text;html=1;strokeColor=none;fillColor=none;align=center;verticalAlign=middle;whiteSpace=wrap;rounded=0;" vertex="1" parent="1">
          <mxGeometry x="610" y="600" width="40" height="20" as="geometry" />
        </mxCell>
        <mxCell id="B1bo0eIq5hZwTZeY6I_s-65" value="go to sidebar" style="text;html=1;strokeColor=none;fillColor=none;align=center;verticalAlign=middle;whiteSpace=wrap;rounded=0;" vertex="1" parent="1">
          <mxGeometry x="340" y="600" width="40" height="20" as="geometry" />
        </mxCell>
        <mxCell id="B1bo0eIq5hZwTZeY6I_s-66" value="" style="endArrow=classic;html=1;exitX=0.606;exitY=1.056;exitDx=0;exitDy=0;exitPerimeter=0;entryX=0.606;entryY=0;entryDx=0;entryDy=0;entryPerimeter=0;" edge="1" parent="1" source="B1bo0eIq5hZwTZeY6I_s-61" target="B1bo0eIq5hZwTZeY6I_s-68">
          <mxGeometry width="50" height="50" relative="1" as="geometry">
            <mxPoint x="410" y="720" as="sourcePoint" />
            <mxPoint x="340" y="810" as="targetPoint" />
          </mxGeometry>
        </mxCell>
        <mxCell id="B1bo0eIq5hZwTZeY6I_s-67" value="go to specific&amp;nbsp; module" style="text;html=1;strokeColor=none;fillColor=none;align=center;verticalAlign=middle;whiteSpace=wrap;rounded=0;" vertex="1" parent="1">
          <mxGeometry x="290" y="760" width="40" height="20" as="geometry" />
        </mxCell>
        <mxCell id="B1bo0eIq5hZwTZeY6I_s-75" style="edgeStyle=orthogonalEdgeStyle;rounded=0;orthogonalLoop=1;jettySize=auto;html=1;exitX=1;exitY=0.5;exitDx=0;exitDy=0;entryX=0.5;entryY=0;entryDx=0;entryDy=0;" edge="1" parent="1" source="B1bo0eIq5hZwTZeY6I_s-68" target="B1bo0eIq5hZwTZeY6I_s-60">
          <mxGeometry relative="1" as="geometry" />
        </mxCell>
        <mxCell id="B1bo0eIq5hZwTZeY6I_s-68" value="Post and answer questions" style="rounded=1;whiteSpace=wrap;html=1;" vertex="1" parent="1">
          <mxGeometry x="210" y="820" width="120" height="60" as="geometry" />
        </mxCell>
        <mxCell id="B1bo0eIq5hZwTZeY6I_s-70" value="" style="endArrow=classic;html=1;exitX=0.5;exitY=1;exitDx=0;exitDy=0;" edge="1" parent="1" source="B1bo0eIq5hZwTZeY6I_s-62" target="B1bo0eIq5hZwTZeY6I_s-71">
          <mxGeometry width="50" height="50" relative="1" as="geometry">
            <mxPoint x="410" y="780" as="sourcePoint" />
            <mxPoint x="736" y="810" as="targetPoint" />
          </mxGeometry>
        </mxCell>
        <mxCell id="B1bo0eIq5hZwTZeY6I_s-76" style="edgeStyle=orthogonalEdgeStyle;rounded=0;orthogonalLoop=1;jettySize=auto;html=1;exitX=0.5;exitY=1;exitDx=0;exitDy=0;entryX=1;entryY=0.5;entryDx=0;entryDy=0;" edge="1" parent="1" source="B1bo0eIq5hZwTZeY6I_s-71" target="B1bo0eIq5hZwTZeY6I_s-60">
          <mxGeometry relative="1" as="geometry" />
        </mxCell>
        <mxCell id="B1bo0eIq5hZwTZeY6I_s-71" value="answer questions" style="rounded=1;whiteSpace=wrap;html=1;" vertex="1" parent="1">
          <mxGeometry x="675.5" y="826" width="120" height="60" as="geometry" />
        </mxCell>
        <mxCell id="B1bo0eIq5hZwTZeY6I_s-72" value="go to specific question" style="text;html=1;strokeColor=none;fillColor=none;align=center;verticalAlign=middle;whiteSpace=wrap;rounded=0;" vertex="1" parent="1">
          <mxGeometry x="680" y="770" width="40" height="20" as="geometry" />
        </mxCell>
        <mxCell id="B1bo0eIq5hZwTZeY6I_s-77" value="&lt;font style=&quot;font-size: 31px&quot;&gt;State diagram (logical view)&lt;/font&gt;" style="text;html=1;strokeColor=none;fillColor=none;align=center;verticalAlign=middle;whiteSpace=wrap;rounded=0;" vertex="1" parent="1">
          <mxGeometry x="145" y="150" width="430" height="80" as="geometry" />
        </mxCell>
      </root>
    </mxGraphModel>
  </diagram>
</mxfile>
